<svg xmlns="http://www.w3.org/2000/svg" viewBox="0 0 90 90"><title>inbox-mail</title><g id="inbox-mail-flat"><circle id="label" cx="45" cy="45" r="45" fill="#3bafda"/><g id="shadow"><path d="M88.08,58l-.18-.18h0l-.18-.18h0l-.18-.18h0l-.18-.18h0l-.18-.18h0L87,56.88h0l-.18-.18h0l-.18-.18h0l-.18-.18h0l-.18-.18h0L86.11,56h0l-.18-.18h0l-.18-.18h0l-.18-.18h0l-.18-.18h0l-.18-.18h0L85,54.91h0l-.18-.18h0l-.18-.18h0l-.18-.18h0l-.18-.18h0L84.13,54h0L84,53.83h0l-.18-.18h0l-.18-.18h0l-.18-.18h0l-.18-.18h0l-.18-.18h0l-.18-.18h0l-.18-.18h0l-.18-.18h0l-.18-.18h0L82.16,52h0L82,51.86h0l-.18-.18h0l-.18-.18h0l-.18-.18h0l-.18-.18h0L81.09,51h0l-.18-.18h0l-.18-.18h0l-.18-.18h0l-.18-.18h0l-.18-.18h0L80,49.89h0l-.18-.18h0l-.18-.18h0l-.18-.18h0l-.18-.18h0L79.11,49h0l-.18-.18h0l-.18-.18h0l-.18-.18h0l-.18-.18h0l-.18-.18h0L78,47.91h0l-.18-.18h0l-.18-.18h0l-.18-.18h0l-.18-.18h0L77.14,47h0L77,46.84h0l-.18-.18h0l-.18-.18h0l-.18-.18h0l-.18-.18h0l-.18-.18h0l-.18-.18h0l-.18-.18h0l-.18-.18h0l-.18-.18h0L75.17,45h0L75,44.87h0l-.18-.18h0l-.18-.18h0l-.18-.18h0l-.18-.18h0L74.09,44h0l-.18-.18h0l-.18-.18h0l-.18-.18h0l-.18-.18h0l-.18-.18h0L73,42.89h0l-.18-.18h0l-.18-.18h0l-.18-.18h0l-.18-.18h0L72.12,42h0l-.18-.18h0l-.18-.18h0l-.18-.18h0l-.18-.18h0l-.18-.18h0L71,40.92h0l-.18-.18h0l-.18-.18h0l-.18-.18h0l-.18-.18h0L70.15,40h0L70,39.85h0l-.18-.18h0l-.18-.18h0l-.18-.18h0l-.18-.18h0L69.07,39h0l-.18-.18h0l-.18-.18h0l-.18-.18h0l-.18-.18h0l-.18-.18h0L68,37.87h0l-.18-.18h0l-.18-.18h0l-.18-.18h0l-.18-.18h0L67.1,37h0l-.18-.18h0l-.18-.18h0l-.18-.18h0l-.18-.18h0l-.18-.18h0L66,35.9h0l-.18-.18h0l-.18-.18h0l-.18-.18h0l-.18-.18h0L65.13,35h0L65,34.83h0l-.18-.18h0l-.18-.18h0l-.18-.18h0l-.18-.18h0l-.18-.18h0l-.18-.18h0l-.18-.18h0l-.18-.18h0l-.18-.18h0L63.16,33h0L63,32.85h0l-.18-.18h0l-.18-.18h0l-.18-.18h0l-.18-.18h0L62.08,32h0l-.18-.18h0l-.18-.18h0l-.18-.18h0l-.18-.18h0l-.18-.18h0L51.11,21H28.81V43L23,51.69a0,0,0,0,0,0,0,0,0,0,0,0,0,0V67.13a1.86,1.86,0,0,0,.65,1.4l.18.18.18.18.18.18.18.18.18.18.18.18.18.18.18.18.18.18.18.18.18.18.18.18.18.18.18.18.18.18.18.18.18.18.18.18.18.18.18.18.18.18.18.18.18.18.18.18.18.18.18.18.18.18.18.18.18.18.18.18.18.18.18.18.18.18.18.18.18.18.18.18.18.18.18.18.18.18.18.18.18.18.18.18.18.18.18.18.18.18.18.18.18.18.18.18.18.18.18.18.18.18.18.18.18.18.18.18.18.18.18.18.18.18.18.18.18.18.18.18.18.18.18.18.18.18.18.18.18.18.18.18.18.18.18.18.18.18.18.18.18.18.18.18.18.18.18.18.18.18.18.18.18.18.18.18.18.18.18.18.18.18.18.18.18.18.18.18.18.18.18.18.18.18.18.18.18.18.18.18.18.18.18.18.18.18.18.18.18.18.18.18.18.18.18.18.18.18.18.18.18.18.18.18.18.18.18.18.18.18.18.18.18.18.18.18.18.18.18.18.18.18.18.18.18.18.18.18.18.18.18.18.18.18.18.18.18.18.13.13a45,45,0,0,0,43-32l0,0Z" fill="#36a2c9"/></g><g id="inbox-mail"><path d="M41.07,40H30.86L23,51.69a0,0,0,0,0,0,0H36.36v5.5H53.64v-5.5H67a0,0,0,0,0,0,0L59.14,40H48.93" fill="#b64a48"/><polygon points="61.19 31.06 51.12 21 28.81 21 28.81 62.68 61.19 62.68 61.19 31.06" fill="#fff"/><polygon points="51.12 21 51.12 31.06 61.19 31.06 51.12 21" fill="#ffca28"/><polygon points="45 30.96 33.59 30.96 33.59 29.15 45 29.15 45 30.96 45 30.96" fill="#434a54"/><polygon points="56.41 36.14 33.59 36.14 33.59 34.33 56.41 34.33 56.41 36.14 56.41 36.14" fill="#434a54"/><polygon points="56.41 41.31 33.59 41.31 33.59 39.51 56.41 39.51 56.41 41.31 56.41 41.31" fill="#434a54"/><polygon points="56.41 46.49 33.59 46.49 33.59 44.69 56.41 44.69 56.41 46.49 56.41 46.49" fill="#434a54"/><path d="M53.64,51.73v5.5H36.36v-5.5H23a0,0,0,0,0,0,0V67.13A1.87,1.87,0,0,0,24.87,69H65.13A1.87,1.87,0,0,0,67,67.13V51.77a0,0,0,0,0,0,0Z" fill="#fc6e51"/></g></g></svg>